<?xml version="1.0" standalone="no"?>
<!DOCTYPE svg PUBLIC "-//W3C//DTD SVG 20010904//EN"
 "http://www.w3.org/TR/2001/REC-SVG-20010904/DTD/svg10.dtd">
<svg version="1.0" xmlns="http://www.w3.org/2000/svg"
 width="1200.000000pt" height="1200.000000pt" viewBox="0 0 1200.000000 1200.000000"
 preserveAspectRatio="xMidYMid meet">
<metadata>
Created by potrace 1.14, written by Peter Selinger 2001-2017
</metadata>
<g transform="translate(0.000000,1200.000000) scale(0.100000,-0.100000)"
fill="#000000" stroke="none">
<path d="M0 6000 l0 -6000 6000 0 6000 0 0 6000 0 6000 -6000 0 -6000 0 0
-6000z m8124 3384 l236 -236 0 -1896 0 -1897 -237 -237 -238 -238 -1895 0
-1895 0 -237 237 -238 238 0 1900 0 1900 232 232 233 233 1901 0 1902 0 236
-236z m-203 -5183 c62 -62 19 -161 -71 -161 -33 0 -48 6 -71 29 -62 62 -19
161 71 161 33 0 48 -6 71 -29z m-3603 -90 c168 -76 202 -304 62 -424 -56 -47
-131 -67 -258 -67 l-102 0 0 -190 0 -190 -80 0 -80 0 0 451 0 451 203 -4 c187
-3 206 -5 255 -27z m887 -225 c102 -48 154 -135 163 -273 l5 -83 -226 0 -226
0 6 -32 c25 -139 194 -188 325 -96 15 11 24 7 58 -27 l40 -39 -21 -22 c-11
-12 -43 -34 -72 -50 -41 -22 -68 -29 -133 -32 -148 -8 -261 50 -318 162 -25
47 -31 73 -34 145 -8 176 64 310 193 355 66 24 181 20 240 -8z m818 -11 c27
-28 36 -32 40 -20 19 48 155 75 205 39 54 -37 57 -57 60 -366 l4 -288 -71 0
-70 0 -3 265 c-3 237 -5 266 -21 282 -20 21 -39 13 -71 -31 -20 -26 -21 -44
-24 -272 l-3 -244 -65 0 -64 0 0 258 c0 217 -2 261 -16 280 -30 44 -73 20 -93
-53 -6 -23 -11 -133 -11 -262 l0 -223 -70 0 -70 0 0 330 0 330 70 0 c63 0 70
-2 70 -20 0 -18 2 -18 36 5 27 18 50 25 85 25 42 0 52 -5 82 -35z m1077 10
c91 -46 140 -140 148 -281 8 -149 -23 -241 -102 -311 -51 -45 -101 -63 -172
-63 -50 0 -123 27 -156 57 -17 15 -18 9 -18 -135 l0 -152 -80 0 -80 0 0 450 0
450 80 0 80 0 0 -42 0 -42 38 36 c47 47 73 57 150 57 48 1 74 -5 112 -24z
m840 -250 l0 -265 75 0 75 0 0 -65 0 -65 -240 0 -240 0 0 65 0 65 85 0 85 0 0
200 0 200 -80 0 -80 0 0 65 0 65 160 0 160 0 0 -265z"/>
<path d="M4560 7255 l0 -1425 1425 0 1425 0 0 1425 0 1425 -1425 0 -1425 0 0
-1425z"/>
<path d="M4022 3878 l3 -123 65 0 c144 -1 197 26 207 105 13 96 -47 140 -193
140 l-85 0 3 -122z"/>
<path d="M5015 3776 c-41 -18 -73 -56 -81 -94 l-6 -32 141 0 c140 0 141 0 141
23 0 35 -38 87 -75 103 -42 17 -81 17 -120 0z"/>
<path d="M6890 3773 c-57 -29 -85 -97 -84 -209 1 -142 47 -210 140 -208 52 1
89 25 119 75 17 28 20 52 20 139 0 87 -3 111 -20 139 -42 70 -112 96 -175 64z"/>
</g>
</svg>
